<svg xmlns="http://www.w3.org/2000/svg" viewBox="0 0 64 64"><defs><style>.cls-1{fill:#0072ff;}</style></defs><title>Personal Image</title><g id="Layer_2" data-name="Layer 2"><path class="cls-1" d="M6,16a2,2,0,0,0,2-2V12.78A4.79,4.79,0,0,1,12.78,8H14a2,2,0,0,0,0-4H12.78A8.79,8.79,0,0,0,4,12.78V14A2,2,0,0,0,6,16Z"/><path class="cls-1" d="M12.78,60H14a2,2,0,0,0,0-4H12.78A4.79,4.79,0,0,1,8,51.22V50a2,2,0,0,0-4,0v1.22A8.79,8.79,0,0,0,12.78,60Z"/><path class="cls-1" d="M60,12.78A8.79,8.79,0,0,0,51.22,4H50a2,2,0,0,0,0,4h1.22A4.79,4.79,0,0,1,56,12.78V14a2,2,0,0,0,4,0Z"/><path class="cls-1" d="M50,60h1.22A8.79,8.79,0,0,0,60,51.22V50a2,2,0,0,0-4,0v1.22A4.79,4.79,0,0,1,51.22,56H50a2,2,0,0,0,0,4Z"/><circle class="cls-1" cx="32" cy="24" r="8"/><path class="cls-1" d="M22.09,34.41A13.87,13.87,0,0,0,16,45.9h0A2.1,2.1,0,0,0,18.1,48H45.9A2.1,2.1,0,0,0,48,45.9h0a13.87,13.87,0,0,0-6.09-11.49,3.57,3.57,0,0,0-3.82-.08,12,12,0,0,1-12.18,0A3.57,3.57,0,0,0,22.09,34.41Z"/></g></svg>