<svg xmlns="http://www.w3.org/2000/svg" viewBox="0 0 201.33 210.43"><defs><style>.cls-1{fill:none;stroke:#212683;stroke-miterlimit:10;stroke-width:6px;}.cls-2{fill:#212683;}.cls-3{fill:#1f268e;}</style></defs><title>Medic 2</title><g id="Layer_2" data-name="Layer 2"><g id="Layer_1-2" data-name="Layer 1"><path class="cls-1" d="M116.75,31.61a66.63,66.63,0,1,0-13.41,104.61l67.84,63.16c8.47,7.88,18.71,10.37,23.4,5.69l1.39-1.39c4.69-4.69,2.2-14.93-5.69-23.4l-63.16-67.84A66.66,66.66,0,0,0,116.75,31.61Z"/><circle class="cls-2" cx="182.19" cy="191.28" r="5.5" transform="translate(-81.9 184.85) rotate(-45)"/><path class="cls-1" d="M86.48,124.69a48.9,48.9,0,1,0-33.7,0"/><path class="cls-1" d="M91.94,69.76H79.49a.9.9,0,0,1-.9-.9V56.42a.9.9,0,0,0-.9-.9H61.57a.9.9,0,0,0-.9.9V68.87a.9.9,0,0,1-.9.9H47.33a.9.9,0,0,0-.9.9V86.79a.9.9,0,0,0,.9.9H59.77a.9.9,0,0,1,.9.9V101a.9.9,0,0,0,.9.9H77.7a.9.9,0,0,0,.9-.9V88.59a.9.9,0,0,1,.9-.9H91.94a.9.9,0,0,0,.9-.9V70.66A.9.9,0,0,0,91.94,69.76Z"/><path class="cls-3" d="M173.76,33.2l-2.58,0,0-2.58a3.17,3.17,0,0,0-6.35-.12l0,2.58-2.58,0a3.17,3.17,0,1,0-.12,6.34l2.58,0,0,2.58a3.17,3.17,0,0,0,6.35.12l0-2.58,2.58,0a3.17,3.17,0,0,0,.12-6.34Z"/><path class="cls-3" d="M13,183.95l-1.75,0,0-1.75a2.15,2.15,0,0,0-4.3-.08l0,1.75-1.75,0a2.15,2.15,0,1,0-.08,4.3l1.75,0,0,1.75a2.15,2.15,0,0,0,4.3.08l0-1.75,1.75,0a2.15,2.15,0,0,0,.08-4.3Z"/><path class="cls-3" d="M10.86,4l-1.75,0,0-1.75a2.15,2.15,0,0,0-4.3-.08l0,1.75-1.75,0A2.15,2.15,0,1,0,3,8.13l1.75,0,0,1.75A2.15,2.15,0,0,0,9,10L9,8.24l1.75,0A2.15,2.15,0,0,0,10.86,4Z"/><circle class="cls-2" cx="68.99" cy="126.28" r="3.29"/></g></g></svg>