<svg xmlns="http://www.w3.org/2000/svg" viewBox="0 0 512 512"><title>Photo_Add</title><g id="Photo_Add" data-name="Photo Add"><g id="Photo_Add-2" data-name="Photo Add"><path d="M255.9978,73.8247a182.1753,182.1753,0,1,0,0,364.3506c100.6082,0,182.18-81.5625,182.18-182.1708A182.1828,182.1828,0,0,0,255.9978,73.8247Zm79.2944,275.5107H159.7491a8.7394,8.7394,0,0,1-8.7453-8.7444V171.4189a8.74,8.74,0,0,1,8.7453-8.7453H352.2464a8.7451,8.7451,0,0,1,8.7544,8.7453V265.04h-20.575v-82.107H171.3771V295.9159h9.6588l39.0059-60.8292,26.0685,40.64h0l12.95,20.1888H270.28l-18.558-28.9422,12.0942-18.8613,30.66,47.8035h12.357v42.7059h28.4553v10.7136Zm-9.738-128.5047a18.1076,18.1076,0,1,1-18.11-18.1053A18.1089,18.1089,0,0,1,325.5542,220.8307Zm42.2667,105.1875V354.469H347.8958V326.0182H319.4369V306.085h28.4589V277.6432h19.9251V306.085h28.45v19.9332Z"/></g></g></svg>